#!OML:ASF H:\MichaelJackson\Top Level 1\Subject 1\Session 1\male.ASF
:FULLY-SPECIFIED
:DEGREES
1107
root 0.824414 15.9443 36.1912 13.0362 -3.20444 0.970188
lowerback -1.59077 1.25424 0.485332
upperback -2.47768 1.62521 -3.99188
thorax -1.52413 0.769155 -4.38109
lowerneck -5.28069 -0.892081 4.65825
upperneck -3.48338 -1.35957 4.6656
head -0.200386 -0.722924 0.64159
rclavicle -1.0138e-014 1.90833e-014
rhumerus 1.99758 -25.1915 -2.27055
rradius 27.866
rwrist -9.74071
rhand -36.9614 -50.6613
rfingers 7.12502
rthumb -10.0374 -440.402
lclavicle -1.0138e-014 1.90833e-014
lhumerus -55.732 -43.8785 118.57
lradius 50.7123
lwrist 21.9158
lhand 38.9562 25.2545
lfingers 7.12502
lthumb 61.5244 37.3282
rfemur -24.7584 -4.78422 -7.60819
rtibia 32.1695
rfoot -3.59176 -5.43486
rtoes -44.8558
lfemur -4.77619 -23.5066 3.89626
ltibia 12.9447
lfoot -20.9024 11.3361
ltoes -29.3827
1108
root 0.824847 15.9344 36.1889 12.955 -3.06028 0.932984
lowerback -1.62892 1.23316 0.525581
upperback -2.4971 1.59735 -3.95558
thorax -1.52482 0.754627 -4.36566
lowerneck -5.28387 -0.903449 4.62242
upperneck -3.52733 -1.37074 4.65789
head -0.212974 -0.729471 0.645046
rclavicle -2.68359e-015 3.97569e-015
rhumerus 1.93105 -25.1777 -2.14588
rradius 27.859
rwrist -9.70392
rhand -36.9753 -50.6431
rfingers 7.12502
rthumb -10.0508 -440.383
lclavicle -2.68359e-015 3.97569e-015
lhumerus -55.746 -43.8172 118.593
lradius 50.6868
lwrist 21.9593
lhand 38.9203 25.2087
lfingers 7.12502
lthumb 61.4942 37.3184
rfemur -24.5516 -4.9217 -7.5779
rtibia 32.124
rfoot -3.83578 -5.43374
rtoes -44.8512
lfemur -4.79694 -23.3787 3.94217
ltibia 13.0466
lfoot -21.1545 11.3785
ltoes -29.4212
1109
root 0.824489 15.9247 36.186 12.8752 -2.93672 0.907865
lowerback -1.66495 1.21874 0.537644
upperback -2.51505 1.57844 -3.92472
thorax -1.52506 0.745026 -4.33991
lowerneck -5.29134 -0.914431 4.59191
upperneck -3.57735 -1.38156 4.6546
head -0.226731 -0.736022 0.649013
rclavicle -9.83984e-015 2.46493e-014
rhumerus 1.85374 -25.1669 -2.02451
rradius 27.8563
rwrist -9.68776
rhand -36.9974 -50.6426
rfingers 7.12502
rthumb -10.0721 -440.382
lclavicle -9.83984e-015 2.46493e-014
lhumerus -55.7784 -43.7743 118.626
lradius 50.684
lwrist 22.0228
lhand 38.8575 25.154
lfingers 7.12502
lthumb 61.4415 37.3264
rfemur -24.3755 -5.02542 -7.56338
rtibia 32.1058
rfoot -4.06499 -5.44905
rtoes -44.8602
lfemur -4.82327 -23.2769 3.97915
ltibia 13.163
lfoot -21.3997 11.4184
ltoes -29.4597
1110
root 0.82328 15.9154 36.1828 12.7932 -2.82957 0.898834
lowerback -1.70098 1.20843 0.521867
upperback -2.52903 1.56515 -3.90286
thorax -1.52124 0.738716 -4.30765
lowerneck -5.3076 -0.922729 4.5684
upperneck -3.62396 -1.38976 4.66168
head -0.238024 -0.741084 0.654995
rclavicle -7.7526e-015 2.3059e-014
rhumerus 1.77324 -25.1618 -1.91724
rradius 27.8503
rwrist -9.67385
rhand -37.0119 -50.6324
rfingers 7.12502
rthumb -10.0861 -440.371
lclavicle -7.7526e-015 2.3059e-014
lhumerus -55.823 -43.7498 118.659
lradius 50.7018
lwrist 22.1134
lhand 38.7772 25.1115
lfingers 7.12502
lthumb 61.374 37.3637
rfemur -24.2201 -5.10011 -7.56495
rtibia 32.1101
rfoot -4.28316 -5.48776
rtoes -44.8744
lfemur -4.85018 -23.2111 4.00142
ltibia 13.2906
lfoot -21.6307 11.4602
ltoes -29.4995
1111
root 0.821117 15.9063 36.1794 12.71 -2.73135 0.910776
lowerback -1.74089 1.199 0.477071
upperback -2.54014 1.55319 -3.89383
thorax -1.51257 0.733531 -4.27218
lowerneck -5.31945 -0.929551 4.5556
upperneck -3.6706 -1.39609 4.67826
head -0.250058 -0.745373 0.662205
rclavicle 4.87022e-015 -3.10104e-014
rhumerus 1.68682 -25.1447 -1.8284
rradius 27.8405
rwrist -9.66831
rhand -37.0127 -50.6113
rfingers 7.12502
rthumb -10.0869 -440.35
lclavicle 4.87022e-015 -3.10104e-014
lhumerus -55.875 -43.7434 118.687
lradius 50.7324
lwrist 22.237
lhand 38.6903 25.0922
lfingers 7.12502
lthumb 61.3009 37.4302
rfemur -24.0767 -5.15153 -7.58371
rtibia 32.1297
rfoot -4.49256 -5.55771
rtoes -44.8804
lfemur -4.87973 -23.1792 4.00644
ltibia 13.4236
lfoot -21.8427 11.4992
ltoes -29.5417
1112
root 0.818066 15.8976 36.176 12.6247 -2.63271 0.946248
lowerback -1.78896 1.18584 0.405962
upperback -2.54645 1.53653 -3.89928
thorax -1.49503 0.726451 -4.23666
lowerneck -5.33075 -0.933514 4.55652
upperneck -3.71021 -1.39953 4.70198
head -0.260115 -0.748146 0.669398
rclavicle 7.95139e-016 -5.56597e-015
rhumerus 1.60699 -25.127 -1.77136
rradius 27.8217
rwrist -9.65588
rhand -37.0081 -50.5959
rfingers 7.12502
rthumb -10.0824 -440.334
lclavicle 7.95139e-016 -5.56597e-015
lhumerus -55.9212 -43.7487 118.697
lradius 50.7669
lwrist 22.387
lhand 38.6163 25.1045
lfingers 7.12502
lthumb 61.2386 37.5153
rfemur -23.9323 -5.19021 -7.61948
rtibia 32.1544
rfoot -4.69006 -5.6614
rtoes -44.8605
lfemur -4.91028 -23.1739 3.99259
ltibia 13.5523
lfoot -22.033 11.5262
ltoes -29.5837
1113
root 0.814265 15.8893 36.1729 12.5378 -2.52233 1.0033
lowerback -1.84843 1.16607 0.317006
upperback -2.54911 1.51142 -3.91927
thorax -1.46802 0.715424 -4.20593
lowerneck -5.33425 -0.937345 4.56944
upperneck -3.7399 -1.4033 4.73242
head -0.268462 -0.75101 0.676698
rclavicle 1.78906e-014 -1.43125e-014
rhumerus 1.53188 -25.109 -1.74594
rradius 27.7938
rwrist -9.62871
rhand -36.9938 -50.5617
rfingers 7.12502
rthumb -10.0687 -440.301
lclavicle 1.78906e-014 -1.43125e-014
lhumerus -55.9575 -43.7615 118.688
lradius 50.7937
lwrist 22.5521
lhand 38.5576 25.1426
lfingers 7.12502
lthumb 61.1891 37.6109
rfemur -23.7741 -5.22632 -7.66851
rtibia 32.1741
rfoot -4.8802 -5.79661
rtoes -44.8039
lfemur -4.94356 -23.1834 3.96365
ltibia 13.6703
lfoot -22.2008 11.5325
ltoes -29.6284
1114
root 0.809917 15.8816 36.17 12.4502 -2.39114 1.08068
lowerback -1.91781 1.13679 0.217326
upperback -2.55045 1.47388 -3.95279
thorax -1.43492 0.698277 -4.18315
lowerneck -5.33603 -0.94056 4.58722
upperneck -3.74597 -1.40752 4.7717
head -0.269871 -0.753398 0.685809
rclavicle -1.70955e-014 9.54166e-015
rhumerus 1.46622 -25.077 -1.75052
rradius 27.7604
rwrist -9.60735
rhand -36.9792 -50.5515
rfingers 7.12502
rthumb -10.0546 -440.291
lclavicle -1.70955e-014 9.54166e-015
lhumerus -55.9818 -43.7732 118.658
lradius 50.8078
lwrist 22.7147
lhand 38.5295 25.2186
lfingers 7.12502
lthumb 61.1654 37.7144
rfemur -23.593 -5.26504 -7.73106
rtibia 32.1785
rfoot -5.06619 -5.95845
rtoes -44.6901
lfemur -4.9817 -23.1962 3.92193
ltibia 13.7715
lfoot -22.3463 11.5122
ltoes -29.6779
1115
root 0.805229 15.8745 36.1675 12.3624 -2.23281 1.16879
lowerback -1.99808 1.09755 0.119755
upperback -2.55064 1.42341 -3.995
thorax -1.39516 0.674586 -4.17056
lowerneck -5.33402 -0.945213 4.60715
upperneck -3.72606 -1.41495 4.81261
head -0.263976 -0.756594 0.694918
rclavicle 1.98785e-014 -2.22639e-014
rhumerus 1.40319 -25.0251 -1.7744
rradius 27.7298
rwrist -9.59354
rhand -36.9641 -50.5401
rfingers 7.12502
rthumb -10.04 -440.281
lclavicle 1.98785e-014 -2.22639e-014
lhumerus -55.9912 -43.7806 118.61
lradius 50.8028
lwrist 22.8587
lhand 38.5273 25.3169
lfingers 7.12502
lthumb 61.1636 37.8147
rfemur -23.3798 -5.31507 -7.79537
rtibia 32.16
rfoot -5.24459 -6.1461
rtoes -44.5463
lfemur -5.02492 -23.1983 3.87758
ltibia 13.8524
lfoot -22.4717 11.4603
ltoes -29.7286
1116
root 0.800436 15.8681 36.1653 12.2745 -2.04725 1.25829
lowerback -2.08679 1.04992 0.033013
upperback -2.55052 1.36204 -4.0392
thorax -1.35078 0.645264 -4.16625
lowerneck -5.33212 -0.952661 4.61843
upperneck -3.67572 -1.4274 4.85333
head -0.248697 -0.76117 0.705153
rclavicle -7.95139e-015 -6.36111e-015
rhumerus 1.34705 -24.9505 -1.80688
rradius 27.7022
rwrist -9.59544
rhand -36.9584 -50.5252
rfingers 7.12502
rthumb -10.0345 -440.266
lclavicle -7.95139e-015 -6.36111e-015
lhumerus -55.9803 -43.7742 118.545
lradius 50.7754
lwrist 22.9622
lhand 38.5593 25.4135
lfingers 7.12502
lthumb 61.1905 37.8802
rfemur -23.1328 -5.37591 -7.85407
rtibia 32.1137
rfoot -5.41752 -6.34955
rtoes -44.361
lfemur -5.07108 -23.1758 3.83765
ltibia 13.9125
lfoot -22.5831 11.3783
ltoes -29.7826
1117
root 0.79578 15.8623 36.1633 12.1865 -1.83925 1.33864
lowerback -2.17982 0.999144 -0.0315621
upperback -2.55234 1.29654 -4.08132
thorax -1.30578 0.613501 -4.17248
lowerneck -5.32812 -0.965358 4.62084
upperneck -3.59632 -1.44804 4.8875
head -0.224843 -0.76877 0.714586
rclavicle -2.0276e-014 2.46493e-014
rhumerus 1.29001 -24.8552 -1.8322
rradius 27.6784
rwrist -9.60164
rhand -36.9639 -50.4979
rfingers 7.12502
rthumb -10.0398 -440.238
lclavicle -2.0276e-014 2.46493e-014
lhumerus -55.9569 -43.7573 118.476
lradius 50.7262
lwrist 23.0182
lhand 38.6187 25.5008
lfingers 7.12502
lthumb 61.2406 37.9092
rfemur -22.8558 -5.44628 -7.89857
rtibia 32.0392
rfoot -5.58428 -6.5642
rtoes -44.1675
lfemur -5.11774 -23.1111 3.80925
ltibia 13.9552
lfoot -22.6885 11.2651
ltoes -29.8385
1118
root 0.791527 15.8571 36.1615 12.0984 -1.61503 1.40299
lowerback -2.27188 0.950355 -0.0660126
upperback -2.55794 1.23346 -4.11823
thorax -1.2645 0.582447 -4.19057
lowerneck -5.32206 -0.985607 4.61223
upperneck -3.49017 -1.47976 4.91057
head -0.193105 -0.780906 0.72214
rclavicle -6.4605e-015 -1.35174e-014
rhumerus 1.22524 -24.7387 -1.83789
rradius 27.6616
rwrist -9.60927
rhand -36.9803 -50.4646
rfingers 7.12502
rthumb -10.0557 -440.204
lclavicle -6.4605e-015 -1.35174e-014
lhumerus -55.9284 -43.734 118.412
lradius 50.6604
lwrist 23.0282
lhand 38.697 25.5666
lfingers 7.12502
lthumb 61.3065 37.898
rfemur -22.5565 -5.52424 -7.92475
rtibia 31.94
rfoot -5.74282 -6.77824
rtoes -43.9786
lfemur -5.16245 -22.9886 3.79516
ltibia 13.9819
lfoot -22.7951 11.1209
ltoes -29.8881
